<?xml version="1.0"?>
<svg version="1.1" xmlns="http://www.w3.org/2000/svg" width="400px" height="200px" style="border: dashed 2px #aaa"><path fill="#c732a7" d="M116.41455078125,146.39453125q0.3251953125-8.7802734375,0.569091796875-17.994140625t0.460693359375-18.183837890625t0.3251953125-17.425048828125t0.1083984375-15.77197265625q0.1083984375-1.46337890625,2.54736328125-2.33056640625t5.826416015625-1.273681640625t7.154296875-0.514892578125t6.693603515625-0.1083984375q0.650390625,0,2.7099609375-0.05419921875l1.02978515625,0q1.57177734375,0,3.30615234375,0.1083984375q2.2763671875,0.16259765625,3.983642578125,0.70458984375t1.707275390625,1.57177734375q0,0.7587890625-0.59619140625,1.219482421875t-1.382080078125,0.677490234375t-1.6259765625,0.27099609375t-1.165283203125,0.05419921875q-5.0947265625,0-10.0810546875-0.16259765625q-1.35498046875-0.05419921875-2.76416015625-0.05419921875q-3.685546875,0-7.4794921875,0.3251953125q0.216796875,0.650390625,0.352294921875,3.929443359375t0.135498046875,7.398193359375t-0.05419921875,8.048583984375t0,6.043212890625l0,14.091796875q1.68017578125-0.1083984375,3.30615234375-0.1083984375l3.251953125,0l2.16796875-0.1083984375q1.083984375-0.05419921875,2.2763671875-0.05419921875q1.24658203125,0,2.54736328125,0.05419921875q2.6015625,0.1083984375,4.742431640625,0.623291015625t2.140869140625,1.815673828125q0,0.9755859375-0.81298828125,1.436279296875t-1.815673828125,0.677490234375t-1.89697265625,0.216796875l-1.002685546875,0q-3.08935546875,0-6.422607421875-0.216796875t-6.205810546875-0.216796875q-0.5419921875,0.216796875-1.165283203125,0.16259765625t-1.111083984375-0.05419921875q0,8.1298828125-0.16259765625,16.178466796875t-0.37939453125,16.015869140625q0,1.57177734375-1.978271484375,2.0595703125t-3.766845703125,0.48779296875q-2.00537109375,0-3.170654296875-0.48779296875t-1.653076171875-1.598876953125t-0.59619140625-2.953857421875q-0.05419921875-1.02978515625-0.1083984375-2.2763671875q0-1.02978515625,0.05419921875-2.22216796875z M160.73162597656,127.6416015625l0-8.5634765625q0-8.888671875,0.298095703125-17.641845703125t0.514892578125-17.641845703125q0-1.68017578125-0.1083984375-3.73974609375q-0.05419921875-0.59619140625-0.05419921875-1.13818359375q0-1.35498046875,0.216796875-2.65576171875q0.27099609375-1.734375,1.327880859375-2.98095703125t3.495849609375-1.24658203125q2.00537109375,0,3.062255859375,0.43359375t1.490478515625,1.273681640625t0.48779296875,2.11376953125t0.05419921875,2.953857421875q0,8.9970703125-0.216796875,18.04833984375q-0.16259765625,6.01611328125-0.16259765625,12.0322265625q0,3.03515625,0.05419921875,6.0703125q0.1083984375,8.9970703125,0.840087890625,17.994140625t2.466064453125,17.77734375q5.419921875-0.216796875,10.83984375-0.5419921875t10.83984375-0.3251953125q0.5419921875,0,1.544677734375,0.1083984375t2.00537109375,0.37939453125t1.707275390625,0.70458984375t0.70458984375,1.24658203125q0,0.5419921875-0.48779296875,0.92138671875t-0.92138671875,0.59619140625l-0.1083984375,0q-0.8671875,0.43359375-3.441650390625,0.840087890625t-5.853515625,0.623291015625t-6.88330078125,0.37939453125t-6.77490234375,0.27099609375t-5.501220703125,0.16259765625t-2.87255859375,0.05419921875l-0.48779296875,0q-1.30078125,0-2.9267578125-0.43359375q-1.951171875-0.5419921875-2.43896484375-2.11376953125q-0.9755859375-4.0107421875-1.544677734375-8.319580078125t-0.8671875-8.753173828125t-0.298095703125-8.888671875z M209.92663085937,154.7412109375q0.216796875-11.32763671875,0.948486328125-22.60107421875t1.273681640625-22.60107421875q0.1083984375-4.3359375,0.1083984375-7.885986328125t0.352294921875-6.151611328125t1.30078125-3.983642578125t3.170654296875-1.382080078125q1.89697265625,0,2.87255859375,0.5419921875t1.490478515625,1.382080078125t0.623291015625,1.89697265625t0.1083984375,2.140869140625q0,1.57177734375,0.1083984375,3.116455078125t0.1083984375,3.116455078125q0,11.43603515625-0.623291015625,22.81787109375t-0.623291015625,22.92626953125q0,1.68017578125,0.05419921875,3.387451171875t0.05419921875,3.495849609375q0,0.650390625-0.59619140625,1.083984375t-1.490478515625,0.731689453125t-1.89697265625,0.406494140625t-1.653076171875,0.1083984375q-0.7587890625,0-1.707275390625-0.1083984375t-1.8427734375-0.460693359375t-1.517578125-0.840087890625t-0.623291015625-1.13818359375z M212.96178710937,81.2470703125q0-0.5419921875,0.16259765625-1.219482421875t0.37939453125-1.219482421875q0.1083984375-0.650390625,0.3251953125-2.22216796875t0.785888671875-3.062255859375t1.57177734375-2.65576171875t2.845458984375-1.165283203125l1.02978515625,0q0.8671875,0.216796875,1.761474609375,0.5419921875t0.894287109375,1.57177734375q0,0.5419921875-0.05419921875,1.02978515625t-0.16259765625,1.083984375q-0.43359375,3.19775390625-0.840087890625,5.04052734375t-0.948486328125,2.791259765625t-1.382080078125,1.219482421875t-2.140869140625,0.37939453125q-0.43359375,0-1.165283203125-0.05419921875t-1.4091796875-0.27099609375t-1.165283203125-0.677490234375t-0.48779296875-1.111083984375z M233.81060058594,151.59765625q2.33056640625-10.56884765625,6.720703125-20.21630859375t9.05126953125-19.294921875q-2.54736328125-8.5634765625-5.3115234375-17.533447265625t-6.66650390625-16.991455078125q-0.43359375-0.3251953125-0.894287109375-0.81298828125t-0.460693359375-1.083984375q0-0.7587890625,0.623291015625-1.24658203125t1.46337890625-0.785888671875t1.734375-0.406494140625t1.436279296875-0.1083984375q4.552734375,0,6.55810546875,4.2275390625q2.22216796875,4.76953125,4.146240234375,9.782958984375t3.712646484375,9.999755859375q0.650390625-1.46337890625,1.544677734375-3.95654296875t1.89697265625-5.25732421875t2.22216796875-5.609619140625t2.65576171875-5.176025390625t3.170654296875-3.766845703125t3.73974609375-1.436279296875t2.6015625,0.37939453125t0.48779296875,1.056884765625t-0.731689453125,1.490478515625t-0.948486328125,1.734375q-0.9755859375,2.33056640625-2.357666015625,6.314208984375t-3.062255859375,8.590576171875t-3.495849609375,9.37646484375t-3.712646484375,8.5634765625q3.90234375,12.791015625,6.44970703125,25.825927734375t5.853515625,25.988525390625q0.3251953125,1.24658203125,1.002685546875,2.628662109375t0.677490234375,2.628662109375q0,0.7587890625-0.731689453125,1.1923828125t-1.68017578125,0.731689453125t-1.869873046875,0.406494140625t-1.517578125,0.1083984375q-2.87255859375,0-4.471435546875-1.273681640625t-2.54736328125-3.224853515625t-1.35498046875-4.28173828125t-0.731689453125-4.552734375q-1.35498046875-7.64208984375-2.845458984375-15.257080078125t-3.333251953125-15.257080078125q-1.68017578125,3.7939453125-2.845458984375,7.0458984375t-2.16796875,6.368408203125t-1.951171875,6.287109375t-2.140869140625,6.802001953125q-0.5419921875,1.57177734375-2.0595703125,1.89697265625t-2.818359375,0.3251953125q-1.35498046875,0-2.899658203125-0.3251953125t-2.140869140625-1.89697265625z"/><path fill="#" d=""/></svg>
